<?xml version="1.0" encoding="UTF-8" standalone="no"?>
<!-- Created with Inkscape (http://www.inkscape.org/) -->

<svg
   version="1.1"
   id="svg1"
   width="298.19641"
   height="98.135681"
   viewBox="0 0 298.19641 98.135678"
   sodipodi:docname="logo.svg"
   inkscape:version="1.4.4 (dcaf3e7d9e, 2026-05-05)"
   xmlns:inkscape="http://www.inkscape.org/namespaces/inkscape"
   xmlns:sodipodi="http://sodipodi.sourceforge.net/DTD/sodipodi-0.dtd"
   xmlns="http://www.w3.org/2000/svg"
   xmlns:svg="http://www.w3.org/2000/svg">
  <defs
     id="defs1">
    <linearGradient
       x1="0"
       y1="0"
       x2="1"
       y2="0"
       gradientUnits="userSpaceOnUse"
       gradientTransform="matrix(82.748733,82.748733,82.748733,-82.748733,66.513901,63.88401)"
       spreadMethod="pad"
       id="linearGradient11">
      <stop
         style="stop-opacity:1;stop-color:#54c7d6"
         offset="0"
         id="stop8" />
      <stop
         style="stop-opacity:1;stop-color:#54c7d6"
         offset="0.39388"
         id="stop9" />
      <stop
         style="stop-opacity:1;stop-color:#54c7d6"
         offset="0.58845457"
         id="stop10" />
      <stop
         style="stop-opacity:1;stop-color:#faba09"
         offset="1"
         id="stop11" />
    </linearGradient>
  </defs>
  <sodipodi:namedview
     id="namedview1"
     pagecolor="#505050"
     bordercolor="#ffffff"
     borderopacity="1"
     inkscape:showpageshadow="0"
     inkscape:pageopacity="0"
     inkscape:pagecheckerboard="1"
     inkscape:deskcolor="#d1d1d1"
     showgrid="false"
     inkscape:zoom="1.960271"
     inkscape:cx="176.50621"
     inkscape:cy="80.856169"
     inkscape:window-width="1920"
     inkscape:window-height="1031"
     inkscape:window-x="0"
     inkscape:window-y="0"
     inkscape:window-maximized="0"
     inkscape:current-layer="layer-MC0">
    <inkscape:page
       x="0"
       y="0"
       id="page1"
       width="298.19641"
       height="98.135681"
       margin="0"
       bleed="0"
       inkscape:label="Logo" />
  </sodipodi:namedview>
  <g
     id="layer-MC0"
     inkscape:groupmode="layer"
     inkscape:label="Capa 1">
    <g
       id="g26"
       transform="matrix(0.6748133,0,0,0.6748133,-62.417595,-54.811451)">
      <path
         id="path1"
         d="m 0,0 h 10.487 c 3.885,0 7.195,1.374 9.928,4.121 2.733,2.749 4.101,6.065 4.101,9.95 0,3.857 -1.368,7.16 -4.101,9.908 -2.733,2.748 -6.043,4.121 -9.928,4.121 H -0.232 v 3.123 h 10.719 c 4.745,0 8.79,-1.679 12.135,-5.037 3.344,-3.359 5.016,-7.397 5.016,-12.115 0,-4.745 -1.672,-8.798 -5.016,-12.155 -3.345,-3.358 -7.39,-5.038 -12.135,-5.038 L 0,-3.122"
         style="fill:#faba09;fill-opacity:1;fill-rule:nonzero;stroke:none"
         transform="matrix(1.3333333,0,0,-1.3333333,230.13293,137.7284)" />
      <path
         id="path2"
         d="m 0,0 c -1.998,1.555 -4.316,2.332 -6.952,2.332 -3.164,0 -5.864,-1.118 -8.097,-3.352 -2.235,-2.235 -3.352,-4.933 -3.352,-8.097 0,-2.637 0.777,-4.954 2.332,-6.952 z m -13.863,-18.275 c 1.998,-1.527 4.301,-2.29 6.911,-2.29 3.164,0 5.869,1.124 8.117,3.372 L 3.372,-19.4 c -2.859,-2.858 -6.3,-4.287 -10.324,-4.287 -4.025,0 -7.459,1.422 -10.304,4.267 -2.845,2.845 -4.266,6.278 -4.266,10.303 0,4.024 1.421,7.458 4.266,10.304 2.845,2.844 6.279,4.267 10.304,4.267 4.024,0 7.465,-1.415 10.324,-4.247 C 3.732,0.818 4.079,0.416 4.412,0 Z"
         style="fill:#faba09;fill-opacity:1;fill-rule:nonzero;stroke:none"
         transform="matrix(1.3333333,0,0,-1.3333333,312.3316,111.69533)" />
      <path
         id="path3"
         d="m 0,0 c 2.47,-1.361 4.982,-2.04 7.535,-2.04 2.192,0 3.969,0.443 5.329,1.332 1.359,0.888 2.039,2.067 2.039,3.539 0,1.082 -0.318,1.997 -0.957,2.748 -0.639,0.748 -1.665,1.276 -3.081,1.581 L 5.037,8.575 c -2.164,0.639 -3.795,1.609 -4.891,2.914 -1.097,1.305 -1.644,2.874 -1.644,4.705 0,2.108 0.846,3.92 2.539,5.432 1.693,1.513 3.941,2.297 6.744,2.353 3.94,0 7.244,-1.097 9.908,-3.289 l -2.414,-2.082 c -2.165,1.499 -4.65,2.249 -7.453,2.249 C 5.8,20.8 4.26,20.308 3.206,19.378 2.151,18.449 1.624,17.373 1.624,16.152 c 0,-1.055 0.333,-1.964 0.999,-2.727 0.666,-0.763 1.692,-1.339 3.08,-1.727 l 6.12,-1.582 c 1.942,-0.473 3.462,-1.34 4.558,-2.602 1.097,-1.263 1.645,-2.824 1.645,-4.683 0,-2.359 -0.985,-4.281 -2.956,-5.765 -1.971,-1.486 -4.482,-2.228 -7.535,-2.228 -3.469,0 -6.675,0.902 -9.616,2.705 z"
         style="fill:#faba09;fill-opacity:1;fill-rule:nonzero;stroke:none"
         transform="matrix(1.3333333,0,0,-1.3333333,337.642,136.3952)" />
      <path
         id="path4"
         d="m 0,0 h 3.122 v -7.285 h 4.163 v -3.123 H 3.122 V -34.345 H 0 Z"
         style="fill:#faba09;fill-opacity:1;fill-rule:nonzero;stroke:none"
         transform="matrix(1.3333333,0,0,-1.3333333,380.77053,96.0976)" />
      <path
         id="path5"
         d="m 309.515,115.571 h -3.122 v 27.06 h 3.122 z m 0,31.222 h -3.122 v 4.164 h 3.122 z"
         style="fill:#faba09;fill-opacity:1;fill-rule:nonzero;stroke:none"
         transform="matrix(1.3333333,0,0,-1.3333333,0,295.98533)" />
      <path
         id="path6"
         d="M 0,0 V -19.191 H -3.122 V 7.869 H 0 V 5.162 c 2.608,2.498 5.73,3.747 9.367,3.747 3.746,0 6.938,-1.319 9.574,-3.955 2.637,-2.637 3.955,-5.828 3.955,-9.575 v -14.57 h -3.122 v 14.57 c 0,2.886 -1.013,5.343 -3.039,7.368 -2.026,2.026 -4.482,3.04 -7.368,3.04 C 6.48,5.787 4.024,4.773 1.998,2.747 1.165,1.916 0.5,1 0,0"
         style="fill:#faba09;fill-opacity:1;fill-rule:nonzero;stroke:none"
         transform="matrix(1.3333333,0,0,-1.3333333,439.05107,116.30253)" />
      <path
         id="path7"
         d="m 0,0 c -3.164,0 -5.863,-1.118 -8.097,-3.352 -2.235,-2.235 -3.352,-4.933 -3.352,-8.097 0,-3.163 1.117,-5.863 3.352,-8.096 2.234,-2.235 4.933,-3.352 8.097,-3.352 3.164,0 5.863,1.117 8.096,3.352 2.234,2.233 3.352,4.933 3.352,8.096 0,3.164 -1.118,5.862 -3.352,8.097 C 5.863,-1.118 3.164,0 0,0 m 14.57,-11.449 c 0,-4.025 -1.422,-7.459 -4.267,-10.303 C 7.458,-24.597 4.024,-26.019 0,-26.019 c -4.024,0 -7.459,1.422 -10.304,4.267 -2.845,2.844 -4.266,6.278 -4.266,10.303 0,4.024 1.421,7.458 4.266,10.304 2.845,2.844 6.28,4.267 10.304,4.267 4.024,0 7.458,-1.423 10.303,-4.267 2.845,-2.846 4.267,-6.28 4.267,-10.304"
         style="fill:#faba09;fill-opacity:1;fill-rule:nonzero;stroke:none"
         transform="matrix(1.3333333,0,0,-1.3333333,507.046,108.58587)" />
      <path
         id="path8"
         d="M 0,0 -6.424,15.508 -12.846,0 Z m 2.951,-7.116 h -18.807 l -3.587,-8.68 h -9.606 l 18.055,40.504 h 9.258 L 16.376,-15.796 H 6.539 Z m -32.693,-1.042 v -7.638 h -35.414 v 6.075 l 22.221,26.791 h -21.758 v 7.638 H -30.61 V 18.633 L -52.773,-8.158 Z m -40.273,-0.115 v -7.523 h -31.364 v 40.504 h 30.61 V 17.187 H -92.061 V 8.392 h 18.804 V 1.1 h -18.804 v -9.373 z m -72.477,-3.416 c -3.22,3.202 -4.83,7.774 -4.83,13.714 v 22.683 h 9.372 V 2.373 c 0,-7.253 3.011,-10.879 9.029,-10.879 2.93,0 5.167,0.877 6.71,2.633 1.544,1.756 2.316,4.504 2.316,8.246 v 22.335 h 9.258 V 2.025 c 0,-5.94 -1.61,-10.512 -4.832,-13.714 -3.221,-3.201 -7.724,-4.802 -13.511,-4.802 -5.785,0 -10.291,1.601 -13.512,4.802 m -44.729,9.432 c 1.1,-1.966 2.612,-3.499 4.542,-4.599 1.93,-1.1 4.089,-1.65 6.481,-1.65 2.393,0 4.552,0.55 6.481,1.65 1.928,1.1 3.443,2.633 4.542,4.599 1.1,1.968 1.649,4.206 1.649,6.713 0,2.507 -0.549,4.745 -1.649,6.712 -1.099,1.968 -2.614,3.502 -4.542,4.602 -1.929,1.097 -4.088,1.648 -6.481,1.648 -2.392,0 -4.551,-0.551 -6.481,-1.648 -1.93,-1.1 -3.442,-2.634 -4.542,-4.602 -1.1,-1.967 -1.648,-4.205 -1.648,-6.712 0,-2.507 0.548,-4.745 1.648,-6.713 m 35.211,-17.879 c -1.312,-1.621 -2.903,-2.855 -4.775,-3.704 -1.87,-0.847 -3.924,-1.272 -6.162,-1.272 -3.008,0 -5.727,0.647 -8.158,1.937 -2.431,1.293 -5.208,3.579 -8.332,6.858 -3.667,0.463 -6.937,1.639 -9.809,3.529 -2.874,1.891 -5.112,4.331 -6.713,7.32 -1.6,2.99 -2.402,6.298 -2.402,9.924 0,3.974 0.956,7.552 2.865,10.734 1.911,3.183 4.552,5.68 7.927,7.493 3.375,1.813 7.166,2.721 11.371,2.721 4.204,0 7.986,-0.908 11.343,-2.721 3.354,-1.813 5.997,-4.31 7.927,-7.493 1.927,-3.182 2.893,-6.76 2.893,-10.734 0,-4.707 -1.321,-8.834 -3.964,-12.383 -2.643,-3.549 -6.143,-6.018 -10.503,-7.407 0.964,-1.002 1.901,-1.725 2.807,-2.17 0.907,-0.442 1.88,-0.666 2.922,-0.666 2.507,0 4.707,1.004 6.596,3.01 z m -62.782,44.844 h 9.373 v -40.505 h -9.373 z"
         style="fill:#54c7d6;fill-opacity:1;fill-rule:nonzero;stroke:none"
         transform="matrix(1.3333333,0,0,-1.3333333,511.87707,191.94667)" />
      <path
         id="path11"
         style="fill:url(#linearGradient11);stroke:none"
         d="M 69.372072,161.07054 V 61.024644 h 23.153321 v 27.870117 h 20.153317 1.14405 l 19.29492,-27.870117 h 24.86572 l -22.43701,32.157715 c 6.572,2.857 11.64819,6.979751 15.22119,12.364751 3.572,5.381 5.35987,11.79161 5.35987,19.22461 0,7.43 -1.76409,13.86299 -5.28809,19.29199 -3.525,5.431 -8.5541,9.62068 -15.0791,12.57568 -6.527,2.952 -14.22255,4.43115 -23.08155,4.43115 z m 62.460938,-16.27441 c 1.85988,0.005 3.85984,-0.20791 6.00147,-0.70166 l 10e-4,-0.003 c -0.301,-17.58 -15.83496,-22.0166 -15.83496,-22.0166 -0.633,-9.581 -8.74512,-10.83106 -8.74512,-10.83106 2.526,6.105 0.85254,9.47901 0.85254,9.47901 l -5.49902,0.51709 -0.003,0.003 0.82471,5.4624 c 0,0 -2.86984,2.43698 -9.40284,1.45898 0,0 3.16963,7.57103 12.61963,5.87403 0,0 6.1659,10.72317 19.18506,10.75781 z m -3.07764,-5.30713 c -0.59742,0.0156 -1.20343,-0.16818 -1.71093,-0.56543 -1.16,-0.907 -1.3655,-2.58267 -0.4585,-3.74267 0.907,-1.16 2.58268,-1.3655 3.74268,-0.4585 1.161,0.907 1.36549,2.58314 0.45849,3.74414 -0.51018,0.6525 -1.26362,1.00242 -2.03174,1.02246 z M 84.221194,124.05101 c 0.11274,-0.004 0.227121,-0.0124 0.341308,-0.0278 1.254555,-0.16961 2.250473,-1.0159 2.671875,-2.12109 0.113213,0.0765 0.231003,0.14817 0.353028,0.21533 2.172997,1.196 4.903614,0.40347 6.099609,-1.76953 0.521348,-0.94725 0.665826,-2.00067 0.481934,-2.98682 3.390232,-0.67255 7.864302,0.25751 13.294922,2.41406 0,0 -5.55749,-6.09474 -11.71875,-8.0625 0.46623,-0.60451 0.699259,-1.3885 0.588867,-2.20459 -0.05028,-0.37173 -0.167822,-0.71815 -0.338379,-1.02832 1.105282,-0.75193 1.754658,-2.0862 1.562988,-3.50097 -0.268995,-1.993 -2.10417,-3.39012 -4.097168,-3.12012 -0.647437,0.0874 -1.231869,0.3408 -1.716797,0.71045 -0.628365,-0.35845 -1.376351,-0.5206 -2.148926,-0.41602 -1.44156,0.19524 -2.550174,1.26374 -2.865234,2.6001 -1.633058,0.66614 -2.752119,2.23668 -2.827149,4.01807 -0.246487,-0.0359 -0.502578,-0.0379 -0.761718,-0.003 -1.494998,0.20199 -2.541353,1.57824 -2.339356,3.07324 0.05806,0.4297 0.212466,0.82203 0.439453,1.15869 -0.497992,0.33801 -0.924806,0.79601 -1.234863,1.35938 -0.95049,1.727 -0.469294,3.85512 1.047363,5.02002 -0.237127,0.54211 -0.332623,1.15351 -0.247558,1.78271 0.231555,1.71281 1.723458,2.94488 3.414551,2.88867 z"
         transform="matrix(1.3333333,0,0,-1.3333333,0,295.98533)" />
      <path
         id="path12"
         d="m 0,0 c 1.962,0 3.552,-1.59 3.552,-3.552 0,-1.962 -1.59,-3.553 -3.552,-3.553 -1.962,0 -3.552,1.591 -3.552,3.553 C -3.552,-1.59 -1.962,0 0,0"
         style="fill:#faba09;fill-opacity:1;fill-rule:nonzero;stroke:none"
         transform="matrix(1.3333333,0,0,-1.3333333,233.7888,105.0804)" />
      <path
         id="path13"
         d="m 0,0 c 1.962,0 3.552,-1.59 3.552,-3.552 0,-1.962 -1.59,-3.553 -3.552,-3.553 -1.962,0 -3.552,1.591 -3.552,3.553 C -3.552,-1.59 -1.962,0 0,0"
         style="fill:#faba09;fill-opacity:1;fill-rule:nonzero;stroke:none"
         transform="matrix(1.3333333,0,0,-1.3333333,233.78867,123.43453)" />
    </g>
  </g>
</svg>
